<svg width="10" height="7" viewBox="0 0 10 7" fill="none" xmlns="http://www.w3.org/2000/svg">
<path d="M0.0224609 1.10799C0.0224609 1.32381 0.0999345 1.50089 0.243814 1.64477L4.38867 5.88924C4.57682 6.07739 4.77051 6.17147 5.00846 6.17147C5.24642 6.17147 5.44564 6.08293 5.62825 5.88924L9.77865 1.64478C9.92253 1.49536 10 1.31828 10 1.10799C10 0.681885 9.6569 0.333252 9.23079 0.333252C9.02051 0.333252 8.82129 0.421794 8.66634 0.576741L5.00846 4.33976L1.35612 0.576741C1.20117 0.421793 1.00195 0.333252 0.791666 0.333252C0.36556 0.333252 0.0224609 0.681884 0.0224609 1.10799Z" fill="#888888"/>
</svg>
