<svg width="40" height="40" viewBox="0 0 40 40" fill="none" xmlns="http://www.w3.org/2000/svg">
<rect width="40" height="40" rx="10" fill="black" fill-opacity="0.5"/>
<path d="M11.5028 28.4972C11.1809 28.1753 11 27.7386 11 27.2833C11 26.828 11.1809 26.3914 11.5028 26.0694L26.0694 11.5028C26.3914 11.1809 26.828 11 27.2833 11C27.7386 11 28.1753 11.1809 28.4972 11.5028C28.8191 11.8247 29 12.2614 29 12.7167C29 13.172 28.8191 13.6086 28.4972 13.9306L13.9306 28.4972C13.6086 28.8191 13.172 29 12.7167 29C12.2614 29 11.8247 28.8191 11.5028 28.4972Z" fill="white"/>
<path d="M26.0694 28.4972L11.5028 13.9306C11.1809 13.6086 11 13.172 11 12.7167C11 12.2614 11.1809 11.8248 11.5028 11.5028C11.8248 11.1809 12.2614 11 12.7167 11C13.172 11 13.6086 11.1809 13.9306 11.5028L28.4972 26.0694C28.8191 26.3914 29 26.828 29 27.2833C29 27.7386 28.8191 28.1753 28.4972 28.4972C28.1753 28.8191 27.7386 29 27.2833 29C26.828 29 26.3914 28.8191 26.0694 28.4972Z" fill="white"/>
</svg>
