<svg width="16" height="16" viewBox="0 0 16 16" fill="none" xmlns="http://www.w3.org/2000/svg">
<path d="M8 16C3.58848 16 0 12.4115 0 8C0 3.58848 3.58848 0 8 0C12.4115 0 16 3.58848 16 8C16 12.4115 12.4109 16 8 16ZM8 1.28C4.2944 1.28 1.28 4.2944 1.28 8C1.28 11.7056 4.2944 14.72 8 14.72C11.7056 14.72 14.72 11.7056 14.72 8C14.72 4.2944 11.705 1.28 8 1.28ZM7.9488 8.5888H3.84C3.67026 8.5888 3.50747 8.52137 3.38745 8.40135C3.26743 8.28132 3.2 8.11854 3.2 7.9488C3.2 7.77906 3.26743 7.61627 3.38745 7.49625C3.50747 7.37623 3.67026 7.3088 3.84 7.3088H7.3088V2.56C7.3088 2.39026 7.37623 2.22747 7.49625 2.10745C7.61627 1.98743 7.77906 1.92 7.9488 1.92C8.11854 1.92 8.28133 1.98743 8.40135 2.10745C8.52137 2.22747 8.5888 2.39026 8.5888 2.56V7.9488C8.5888 8.11854 8.52137 8.28132 8.40135 8.40135C8.28133 8.52137 8.11854 8.5888 7.9488 8.5888Z" fill="#888888"/>
</svg>
