<svg width="19" height="22" viewBox="0 0 19 22" fill="none" xmlns="http://www.w3.org/2000/svg">
<path d="M18.4422 5.57305L13.2129 0.511328C12.8949 0.201953 12.4609 0.0257812 12.0141 0.0257812L2.16563 0C0.971094 0 0 0.9625 0 2.14844V19.843C0 21.0074 1.00117 21.9957 2.18711 21.9957H16.7535C17.918 21.9957 18.8633 21.0289 18.8633 19.8387V6.6C18.8633 6.20039 18.7129 5.83515 18.4422 5.57305ZM13.1914 2.8832L15.8941 5.4957H13.6598C13.4105 5.4957 13.1914 5.30234 13.1914 5.0832V2.8832ZM16.7535 20.2769H2.18711C1.94648 20.2769 1.71875 20.0664 1.71875 19.8387V2.14844C1.71875 1.9207 1.9293 1.71875 2.16563 1.71875L11.4727 1.74453V5.0832C11.4727 6.25625 12.4523 7.21445 13.6598 7.21445H17.1445V19.8387C17.1445 20.0535 16.9984 20.2769 16.7535 20.2769Z" fill="#888888"/>
<path d="M12.375 8.71826H4.59766C4.125 8.71826 3.73828 9.10498 3.73828 9.57764C3.73828 10.0503 4.125 10.437 4.59766 10.437H12.375C12.8477 10.437 13.2344 10.0503 13.2344 9.57764C13.2344 9.10498 12.8477 8.71826 12.375 8.71826ZM4.55469 6.99951H9.53906C10.0117 6.99951 10.3984 6.61279 10.3984 6.14014C10.3984 5.66748 10.0117 5.28076 9.53906 5.28076H4.55469C4.08203 5.28076 3.69531 5.66748 3.69531 6.14014C3.69531 6.61279 4.08203 6.99951 4.55469 6.99951ZM12.375 12.1558H4.59766C4.125 12.1558 3.73828 12.5425 3.73828 13.0151C3.73828 13.4878 4.125 13.8745 4.59766 13.8745H12.375C12.8477 13.8745 13.2344 13.4878 13.2344 13.0151C13.2344 12.5425 12.8477 12.1558 12.375 12.1558ZM12.375 15.6792H4.59766C4.125 15.6792 3.73828 16.0659 3.73828 16.5386C3.73828 17.0112 4.125 17.3979 4.59766 17.3979H12.375C12.8477 17.3979 13.2344 17.0112 13.2344 16.5386C13.2344 16.0659 12.8477 15.6792 12.375 15.6792Z" fill="#888888"/>
</svg>
