<svg width="40" height="36" viewBox="0 0 40 36" fill="none" xmlns="http://www.w3.org/2000/svg">
<path d="M20.0002 14.4645V21.3891" stroke="#E94235" stroke-width="3" stroke-linecap="round" stroke-linejoin="round"/>
<path d="M17.6028 3.38229L2.37262 29.6946C2.12892 30.1157 2.0004 30.5935 2 31.0799C1.9996 31.5664 2.12733 32.0444 2.37033 32.4658C2.61333 32.8873 2.96304 33.2373 3.38427 33.4806C3.80551 33.724 4.2834 33.8521 4.76987 33.8521H35.2301C35.7166 33.8521 36.1945 33.724 36.6157 33.4806C37.037 33.2373 37.3867 32.8873 37.6297 32.4658C37.8727 32.0444 38.0004 31.5664 38 31.0799C37.9996 30.5935 37.8711 30.1157 37.6274 29.6946L22.3972 3.38229C22.1539 2.96193 21.8044 2.61294 21.3836 2.37033C20.9628 2.12771 20.4857 2 20 2C19.5143 2 19.0371 2.12771 18.6164 2.37033C18.1956 2.61294 17.8461 2.96193 17.6028 3.38229V3.38229Z" stroke="#E94235" stroke-width="3" stroke-linecap="round" stroke-linejoin="round"/>
<path d="M20.5776 27.6212C20.5776 27.9401 20.3191 28.1986 20.0002 28.1986C19.6814 28.1986 19.4229 27.9401 19.4229 27.6212C19.4229 27.3023 19.6814 27.0438 20.0002 27.0438C20.3191 27.0438 20.5776 27.3023 20.5776 27.6212Z" fill="#E94235" stroke="#E94235" stroke-width="3"/>
</svg>
