<svg width="100" height="100" viewBox="0 0 100 100" fill="none" xmlns="http://www.w3.org/2000/svg">
<rect x="0.5" y="0.5" width="99" height="99" rx="11.5" stroke="#02AFDD" stroke-linecap="round" stroke-linejoin="round" stroke-dasharray="6 6"/>
<path d="M50 62C49.5453 62 49.1093 61.8194 48.7878 61.4979C48.4663 61.1764 48.2857 60.7404 48.2857 60.2857V39.7143C48.2857 39.2596 48.4663 38.8236 48.7878 38.5021C49.1093 38.1806 49.5453 38 50 38C50.4547 38 50.8907 38.1806 51.2122 38.5021C51.5337 38.8236 51.7143 39.2596 51.7143 39.7143V60.2857C51.7143 60.7404 51.5337 61.1764 51.2122 61.4979C50.8907 61.8194 50.4547 62 50 62Z" fill="#02AFDD"/>
<path d="M60.2857 51.7143H39.7143C39.2596 51.7143 38.8236 51.5337 38.5021 51.2122C38.1806 50.8907 38 50.4547 38 50C38 49.5453 38.1806 49.1093 38.5021 48.7878C38.8236 48.4663 39.2596 48.2857 39.7143 48.2857H60.2857C60.7404 48.2857 61.1764 48.4663 61.4979 48.7878C61.8194 49.1093 62 49.5453 62 50C62 50.4547 61.8194 50.8907 61.4979 51.2122C61.1764 51.5337 60.7404 51.7143 60.2857 51.7143Z" fill="#02AFDD"/>
</svg>
