<svg width="24" height="24" viewBox="0 0 24 24" fill="none" xmlns="http://www.w3.org/2000/svg">
<path d="M9.4 12C9.4 10.456 10.656 9.2 12.2 9.2C13.744 9.2 15 10.456 15 12C15 13.544 13.744 14.8 12.2 14.8C10.656 14.8 9.4 13.544 9.4 12ZM13.4 12C13.4 11.3384 12.8616 10.8 12.2 10.8C11.5384 10.8 11 11.3384 11 12C11 12.6616 11.5384 13.2 12.2 13.2C12.8616 13.2 13.4 12.6616 13.4 12ZM9.4 4.8C9.4 3.256 10.656 2 12.2 2C13.744 2 15 3.256 15 4.8C15 6.344 13.744 7.6 12.2 7.6C10.656 7.6 9.4 6.344 9.4 4.8ZM13.4 4.8C13.4 4.1384 12.8616 3.6 12.2 3.6C11.5384 3.6 11 4.1384 11 4.8C11 5.4616 11.5384 6 12.2 6C12.8616 6 13.4 5.4616 13.4 4.8ZM9.4 19.2C9.4 17.656 10.656 16.4 12.2 16.4C13.744 16.4 15 17.656 15 19.2C15 20.744 13.744 22 12.2 22C10.656 22 9.4 20.744 9.4 19.2ZM13.4 19.2C13.4 18.5384 12.8616 18 12.2 18C11.5384 18 11 18.5384 11 19.2C11 19.8616 11.5384 20.4 12.2 20.4C12.8616 20.4 13.4 19.8616 13.4 19.2Z" fill="#888888"/>
</svg>
