<svg width="7" height="10" viewBox="0 0 7 10" fill="none" xmlns="http://www.w3.org/2000/svg">
<path d="M1.10811 9.97754C1.32393 9.97754 1.50102 9.90007 1.6449 9.75619L5.88936 5.61133C6.07751 5.42318 6.17159 5.22949 6.17159 4.99154C6.17159 4.75358 6.08305 4.55436 5.88936 4.37175L1.6449 0.221354C1.49548 0.077474 1.3184 0 1.10811 0C0.682007 0 0.333374 0.343099 0.333374 0.769206C0.333374 0.979492 0.421916 1.17871 0.576864 1.33366L4.33988 4.99154L0.576864 8.64388C0.421916 8.79883 0.333374 8.99805 0.333374 9.20833C0.333374 9.63444 0.682007 9.97754 1.10811 9.97754Z" fill="#888888"/>
</svg>
