<svg width="38" height="38" viewBox="0 0 38 38" fill="none" xmlns="http://www.w3.org/2000/svg">
<path d="M19 38C16.504 38.0041 14.0317 37.5154 11.7251 36.5618C9.41847 35.6083 7.32295 34.2086 5.55881 32.4433C-1.85294 25.0333 -1.85294 12.9773 5.55881 5.56735C9.14911 1.97791 13.9225 0 19 0C24.0775 0 28.8509 1.97639 32.4412 5.56735C39.8529 12.9773 39.8529 25.0333 32.4412 32.4433C30.6771 34.2086 28.5815 35.6083 26.2749 36.5618C23.9683 37.5154 21.496 38.0041 19 38ZM19 3.04061C16.9022 3.03482 14.824 3.44517 12.8859 4.24789C10.9478 5.05062 9.18818 6.22977 7.70903 7.71706C1.48493 13.9412 1.48493 24.0679 7.70903 30.2936C13.9347 36.5162 24.0638 36.5162 30.291 30.2936C36.5151 24.0694 36.5151 13.9427 30.291 7.71706C28.8116 6.23004 27.052 5.05107 25.1139 4.24836C23.1758 3.44566 21.0978 3.03516 19 3.04061Z" fill="#3CB047"/>
<path d="M16.719 26.2997C16.5193 26.2999 16.3215 26.2607 16.137 26.1842C15.9525 26.1078 15.7849 25.9957 15.6439 25.8543L9.19168 19.4036C9.0505 19.2625 8.9385 19.0949 8.86209 18.9105C8.78568 18.7261 8.74636 18.5284 8.74636 18.3288C8.74636 18.1292 8.78568 17.9315 8.86209 17.7471C8.9385 17.5626 9.0505 17.3951 9.19168 17.2539C9.33287 17.1128 9.50048 17.0008 9.68495 16.9244C9.86942 16.848 10.0671 16.8087 10.2668 16.8087C10.4665 16.8087 10.6642 16.848 10.8486 16.9244C11.0331 17.0008 11.2007 17.1128 11.3419 17.2539L16.719 22.6297L26.6611 12.69C26.8023 12.5488 26.9699 12.4369 27.1544 12.3605C27.3389 12.2841 27.5366 12.2448 27.7362 12.2448C27.9359 12.2448 28.1336 12.2841 28.3181 12.3605C28.5026 12.4369 28.6702 12.5488 28.8114 12.69C28.9525 12.8311 29.0645 12.9987 29.1409 13.1831C29.2174 13.3675 29.2567 13.5652 29.2567 13.7648C29.2567 13.9644 29.2174 14.1621 29.1409 14.3465C29.0645 14.531 28.9525 14.6985 28.8114 14.8397L17.7941 25.8543C17.6531 25.9957 17.4855 26.1078 17.301 26.1842C17.1165 26.2607 16.9187 26.2999 16.719 26.2997Z" fill="#3CB047"/>
</svg>
