<svg width="18" height="22" viewBox="0 0 18 22" fill="none" xmlns="http://www.w3.org/2000/svg">
<path d="M12.7554 5.55115C12.7554 5.75634 12.7411 5.96153 12.715 6.16439C12.7269 6.08278 12.7388 5.99884 12.7483 5.91723C12.6912 6.32295 12.582 6.717 12.4228 7.09474C12.4537 7.02012 12.487 6.94551 12.5178 6.8709C12.3587 7.2393 12.1544 7.5844 11.905 7.90151C11.9549 7.83855 12.0048 7.7756 12.0547 7.71264C11.8076 8.02509 11.5202 8.30722 11.2019 8.54972C11.266 8.50075 11.3302 8.45179 11.3943 8.40282C11.0713 8.64532 10.7197 8.84818 10.3444 9.0044C10.4204 8.97409 10.4964 8.94145 10.5724 8.91113C10.1876 9.06736 9.78621 9.17461 9.3729 9.23058C9.45604 9.21892 9.54155 9.20726 9.62468 9.19793C9.209 9.25156 8.79094 9.25156 8.37526 9.19793C8.45839 9.20959 8.54391 9.22125 8.62704 9.23058C8.21373 9.17461 7.8123 9.06736 7.4275 8.91113C7.50351 8.94145 7.57952 8.97409 7.65553 9.0044C7.28023 8.84818 6.92868 8.64765 6.60563 8.40282C6.66976 8.45179 6.7339 8.50075 6.79803 8.54972C6.47974 8.30722 6.19232 8.02509 5.94529 7.71264C5.99517 7.7756 6.04505 7.83855 6.09493 7.90151C5.8479 7.5844 5.64124 7.2393 5.48209 6.8709C5.51297 6.94551 5.54623 7.02012 5.57711 7.09474C5.41796 6.717 5.3087 6.32295 5.25169 5.91723C5.26356 5.99884 5.27544 6.08278 5.28494 6.16439C5.23031 5.75634 5.23031 5.34596 5.28494 4.93792C5.27307 5.01953 5.26119 5.10347 5.25169 5.18508C5.3087 4.77936 5.41796 4.3853 5.57711 4.00757C5.54623 4.08218 5.51297 4.1568 5.48209 4.23141C5.64124 3.863 5.84552 3.51791 6.09493 3.2008C6.04505 3.26376 5.99517 3.32671 5.94529 3.38967C6.19232 3.07722 6.47974 2.79508 6.79803 2.55259C6.7339 2.60155 6.66976 2.65052 6.60563 2.69948C6.92868 2.45699 7.28023 2.25413 7.65553 2.09791C7.57952 2.12822 7.50351 2.16086 7.4275 2.19117C7.8123 2.03495 8.21373 1.92769 8.62704 1.87173C8.54391 1.88339 8.45839 1.89505 8.37526 1.90437C8.79094 1.85075 9.209 1.85075 9.62468 1.90437C9.54155 1.89272 9.45604 1.88106 9.3729 1.87173C9.78621 1.92769 10.1876 2.03495 10.5724 2.19117C10.4964 2.16086 10.4204 2.12822 10.3444 2.09791C10.7197 2.25413 11.0713 2.45466 11.3943 2.69948C11.3302 2.65052 11.266 2.60155 11.2019 2.55259C11.5202 2.79508 11.8076 3.07722 12.0547 3.38967C12.0048 3.32671 11.9549 3.26376 11.905 3.2008C12.152 3.51791 12.3587 3.863 12.5178 4.23141C12.487 4.1568 12.4537 4.08218 12.4228 4.00757C12.582 4.3853 12.6912 4.77936 12.7483 5.18508C12.7364 5.10347 12.7245 5.01953 12.715 4.93792C12.7411 5.14077 12.753 5.34596 12.7554 5.55115C12.7578 6.03848 13.1901 6.50715 13.7055 6.48383C14.2186 6.46052 14.658 6.07345 14.6556 5.55115C14.6509 4.43427 14.3088 3.29174 13.639 2.38237C13.4585 2.13754 13.2661 1.89738 13.0523 1.68053C12.8361 1.46135 12.5986 1.27248 12.3516 1.08828C11.9026 0.752515 11.4014 0.505355 10.8694 0.314155C8.72443 -0.457637 6.13769 0.230214 4.68636 1.965C4.48683 2.20283 4.2968 2.44999 4.13528 2.71581C3.97376 2.97929 3.84786 3.25909 3.73147 3.54356C3.51294 4.07052 3.4013 4.63013 3.35617 5.19674C3.26828 6.30662 3.56282 7.46548 4.15191 8.41681C4.71961 9.3355 5.57711 10.1236 6.5795 10.569C6.87404 10.6995 7.17571 10.8208 7.48925 10.9071C7.80042 10.991 8.11634 11.0376 8.43701 11.075C9.02135 11.1426 9.61756 11.0959 10.1948 10.9817C12.3872 10.5433 14.2233 8.68962 14.563 6.51415C14.6129 6.19703 14.6509 5.87992 14.6509 5.55815C14.6533 5.07082 14.2115 4.60215 13.7008 4.62547C13.1877 4.64179 12.7554 5.02885 12.7554 5.55115ZM15.9075 20.1313C15.4419 20.1313 14.9763 20.1313 14.5108 20.1313C13.4015 20.1313 12.2946 20.1313 11.1853 20.1313C9.85034 20.1313 8.5154 20.1313 7.17809 20.1313C6.02605 20.1313 4.87401 20.1313 3.71959 20.1313C3.18039 20.1313 2.64119 20.1359 2.10199 20.1313C2.0426 20.1313 1.98322 20.1266 1.92621 20.1196C2.00935 20.1313 2.09486 20.1429 2.178 20.1523C2.08299 20.1383 1.99272 20.1126 1.90484 20.0776C1.98085 20.108 2.05686 20.1406 2.13287 20.1709C2.03785 20.1313 1.94997 20.08 1.86683 20.017C1.93096 20.066 1.9951 20.115 2.05923 20.1639C1.98797 20.1056 1.92146 20.0427 1.86445 19.9727C1.91434 20.0357 1.96422 20.0986 2.0141 20.1616C1.94997 20.08 1.90008 19.9937 1.85733 19.9004C1.88821 19.975 1.92146 20.0497 1.95234 20.1243C1.91671 20.038 1.89296 19.9471 1.87633 19.8561C1.88821 19.9377 1.90008 20.0217 1.90959 20.1033C1.87158 19.8212 1.89771 19.5227 1.89771 19.2382C1.89771 18.9048 1.89771 18.5737 1.89771 18.2403C1.89771 17.9908 1.91196 17.7436 1.94522 17.4965C1.93334 17.5781 1.92146 17.662 1.91196 17.7436C1.97847 17.2656 2.10674 16.7969 2.29914 16.3516C2.26826 16.4262 2.23501 16.5008 2.20413 16.5754C2.3894 16.1511 2.62694 15.7523 2.91435 15.3863C2.86447 15.4492 2.81459 15.5122 2.76471 15.5751C3.05212 15.2137 3.3823 14.8873 3.75285 14.6051C3.68871 14.6541 3.62458 14.7031 3.56045 14.752C3.93337 14.4699 4.33956 14.2367 4.77187 14.0549C4.69586 14.0852 4.61985 14.1178 4.54384 14.1481C4.99753 13.9616 5.47259 13.8334 5.96191 13.7681C5.87878 13.7797 5.79326 13.7914 5.71013 13.8007C6.06168 13.7564 6.41085 13.7541 6.76478 13.7541C7.19946 13.7541 7.63415 13.7541 8.06884 13.7541C9.08311 13.7541 10.0974 13.7541 11.1116 13.7541C11.5036 13.7541 11.8931 13.7517 12.2851 13.8007C12.2019 13.789 12.1164 13.7774 12.0333 13.7681C12.5202 13.8334 12.9977 13.9593 13.4514 14.1481C13.3753 14.1178 13.2993 14.0852 13.2233 14.0549C13.6556 14.2367 14.0618 14.4699 14.4347 14.752C14.3706 14.7031 14.3065 14.6541 14.2423 14.6051C14.6105 14.8873 14.9431 15.2114 15.2305 15.5751C15.1806 15.5122 15.1307 15.4492 15.0808 15.3863C15.3683 15.7523 15.6058 16.1511 15.7911 16.5754C15.7602 16.5008 15.7269 16.4262 15.696 16.3516C15.8861 16.7969 16.0167 17.2633 16.0832 17.7436C16.0714 17.662 16.0595 17.5781 16.05 17.4965C16.0951 17.8485 16.0975 18.1983 16.0975 18.5527C16.0975 18.9374 16.0975 19.3222 16.0975 19.7069C16.0975 19.8398 16.1022 19.9727 16.0856 20.1033C16.0975 20.0217 16.1094 19.9377 16.1189 19.8561C16.1046 19.9494 16.0785 20.038 16.0428 20.1243C16.0737 20.0497 16.107 19.975 16.1379 19.9004C16.0975 19.9937 16.0452 20.08 15.9811 20.1616C16.031 20.0986 16.0809 20.0357 16.1307 19.9727C16.0714 20.0427 16.0072 20.108 15.936 20.1639C16.0001 20.115 16.0642 20.066 16.1284 20.017C16.0452 20.08 15.9573 20.1289 15.8623 20.1709C15.9383 20.1406 16.0143 20.108 16.0904 20.0776C16.0025 20.1126 15.9098 20.1359 15.8172 20.1523C15.9003 20.1406 15.9858 20.1289 16.069 20.1196C16.0167 20.1266 15.9621 20.1289 15.9075 20.1313C15.6628 20.1336 15.411 20.2339 15.2352 20.4041C15.0713 20.565 14.9454 20.8308 14.9573 21.064C14.9811 21.5629 15.3754 22.0036 15.9075 21.9966C16.8315 21.9826 17.6438 21.3904 17.9146 20.5207C18.0215 20.1756 17.9977 19.8048 17.9977 19.4504C17.9977 18.639 18.0239 17.8345 17.8814 17.0301C17.6723 15.8526 17.069 14.745 16.2424 13.8753C15.4158 13.0056 14.3041 12.3667 13.1283 12.0822C12.4537 11.919 11.7744 11.8934 11.0855 11.8934C10.3777 11.8934 9.67219 11.8934 8.96434 11.8934C8.26599 11.8934 7.57002 11.8934 6.87167 11.8934C6.16619 11.8934 5.46547 11.926 4.77899 12.1056C3.6127 12.4087 2.5153 13.0546 1.70531 13.9313C0.88819 14.815 0.296731 15.9249 0.104329 17.1094C-0.0239392 17.9045 0.00218944 18.7019 0.00218944 19.504C0.00218944 19.8725 -0.0191885 20.2572 0.116206 20.6093C0.291981 21.0616 0.572271 21.4184 0.983204 21.6865C1.30387 21.894 1.71006 21.9943 2.09011 21.999C2.27539 22.0013 2.46066 21.999 2.64594 21.999C3.12101 21.999 3.5937 21.999 4.06877 21.999C4.74336 21.999 5.41559 21.999 6.09018 21.999C6.87404 21.999 7.6579 21.999 8.44177 21.999C9.24701 21.999 10.0499 21.999 10.8551 21.999C11.5915 21.999 12.3254 21.999 13.0618 21.999C13.639 21.999 14.2162 21.999 14.791 21.999C15.1212 21.999 15.4514 21.999 15.7816 21.999C15.8243 21.999 15.8671 21.999 15.9098 21.999C16.4063 21.999 16.8837 21.5699 16.86 21.0663C16.8362 20.558 16.4419 20.1313 15.9075 20.1313Z" fill="#262626"/>
</svg>
