<svg width="120" height="120" viewBox="0 0 120 120" fill="none" xmlns="http://www.w3.org/2000/svg">
<path d="M105.6 120H14.4C6.4608 120 0 113.539 0 105.6V52.8C0 44.8608 6.4608 38.4 14.4 38.4H105.6C113.539 38.4 120 44.8608 120 52.8V105.6C120 113.539 113.539 120 105.6 120ZM14.4 48C11.7552 48 9.6 50.1552 9.6 52.8V105.6C9.6 108.245 11.7552 110.4 14.4 110.4H105.6C108.245 110.4 110.4 108.245 110.4 105.6V52.8C110.4 50.1552 108.245 48 105.6 48H14.4ZM24 0H96C97.273 0 98.4939 0.505713 99.3941 1.40589C100.294 2.30606 100.8 3.52696 100.8 4.8C100.8 6.07304 100.294 7.29394 99.3941 8.19411C98.4939 9.09429 97.273 9.6 96 9.6H24C22.727 9.6 21.5061 9.09429 20.6059 8.19411C19.7057 7.29394 19.2 6.07304 19.2 4.8C19.2 3.52696 19.7057 2.30606 20.6059 1.40589C21.5061 0.505713 22.727 0 24 0ZM14.4 19.2H105.6C106.873 19.2 108.094 19.7057 108.994 20.6059C109.894 21.5061 110.4 22.727 110.4 24C110.4 25.273 109.894 26.4939 108.994 27.3941C108.094 28.2943 106.873 28.8 105.6 28.8H14.4C13.127 28.8 11.9061 28.2943 11.0059 27.3941C10.1057 26.4939 9.6 25.273 9.6 24C9.6 22.727 10.1057 21.5061 11.0059 20.6059C11.9061 19.7057 13.127 19.2 14.4 19.2Z" fill="#E5E5E5"/>
</svg>
